<svg data-name="Layer 1" xmlns="http://www.w3.org/2000/svg" viewBox="0 0 512 512"><rect x="72.604" y="72.604" width="366.793" height="366.793" rx="12" ry="12" fill="#f5f5f7"/><path fill="none" stroke="#79c2d3" stroke-miterlimit="10" stroke-width="53.437" d="M169.175 326.16L342.46 152.875"/><path fill="none" stroke="#3650a3" stroke-miterlimit="10" stroke-width=".352" d="M169.175 326.16L342.46 152.875"/><path fill="#414242" d="M150.013 171.498l37.785-37.786 173.825 173.825-37.786 37.785z"/><path fill="#fff" stroke="#3650a3" stroke-miterlimit="10" stroke-width=".352" d="M167.853 324.67h2.812v2.812h-2.812zM340.904 151.618h2.812v2.812h-2.812z"/><path fill="none" stroke="#3650a3" stroke-miterlimit="10" stroke-width=".352" d="M150.013 171.498l37.785-37.786 173.825 173.825-37.786 37.785z"/><path fill="#fff" stroke="#3650a3" stroke-miterlimit="10" stroke-width=".352" d="M360.216 306.386h2.812v2.812h-2.812zM322.531 343.916h2.812v2.812h-2.812zM341.374 325.074h2.812v2.812h-2.812zM186.656 132.826h2.812v2.812h-2.812zM148.971 170.356h2.812v2.812h-2.812zM167.814 151.514h2.812v2.812h-2.812zM273.215 219.385h2.812v2.812h-2.812zM235.53 256.915h2.812v2.812h-2.812z"/><g fill="#231f20"><path d="M138.994 402.139h-1.631v-7.152q0-2.592-.962-2.593-.491 0-1.081.893a5.66 5.66 0 0 0-.592.989v7.863h-1.621v-7.152q0-2.592-.972-2.593-.482 0-1.073.893a5.7 5.7 0 0 0-.59.989v7.863h-1.631v-10.9h1.568v1.642a4.435 4.435 0 0 1 1.091-1.381 1.992 1.992 0 0 1 1.261-.518 1.633 1.633 0 0 1 1.182.518 2.766 2.766 0 0 1 .721 1.385 4.385 4.385 0 0 1 1.1-1.385 2 2 0 0 1 1.255-.518q1.976 0 1.976 3.534zM148.269 402.139h-1.631v-9.484h-3.21v-1.412h4.841zm-.795-15.015a1.066 1.066 0 0 1 .784.329 1.149 1.149 0 0 1 0 1.6 1.059 1.059 0 0 1-.789.324 1.035 1.035 0 0 1-.759-.339 1.107 1.107 0 0 1-.329-.79 1.086 1.086 0 0 1 .329-.784 1.041 1.041 0 0 1 .764-.341zM163.8 401.773a7.456 7.456 0 0 1-3.126.648 5.48 5.48 0 0 1-4.1-1.564 6.386 6.386 0 0 1 .009-8.311 5.44 5.44 0 0 1 4.053-1.564 8.57 8.57 0 0 1 3.126.575l-.429 1.349a8.291 8.291 0 0 0-2.677-.512 3.648 3.648 0 0 0-2.849 1.161 5.036 5.036 0 0 0 .036 6.207A3.6 3.6 0 0 0 160.67 401a8.283 8.283 0 0 0 2.844-.533zM176.857 391.536l-.657 1.564a4.793 4.793 0 0 0-1.861-.471 2.709 2.709 0 0 0-1.412.414 4.51 4.51 0 0 0-1.27 1.18 4.221 4.221 0 0 0-.581.863v7.048h-1.621v-10.9h1.621v2.206q1.306-2.467 3.388-2.468a5.5 5.5 0 0 1 2.393.564zM185.316 390.982a4.446 4.446 0 0 1 3.576 1.568 6.174 6.174 0 0 1 1.328 4.13 6.247 6.247 0 0 1-1.328 4.162 4.852 4.852 0 0 1-7.158.006 6.269 6.269 0 0 1-1.322-4.168 6.165 6.165 0 0 1 1.328-4.135 4.452 4.452 0 0 1 3.576-1.563zm0 10.017a2.693 2.693 0 0 0 2.342-1.255 5.952 5.952 0 0 0 .01-6.138 2.9 2.9 0 0 0-4.705-.015 6.072 6.072 0 0 0 .01 6.169 2.689 2.689 0 0 0 2.343 1.24zM201.168 397.046h-6.211v-1.589h6.211zM211.018 390.982a4.446 4.446 0 0 1 3.576 1.568 6.174 6.174 0 0 1 1.328 4.13 6.247 6.247 0 0 1-1.328 4.162 4.852 4.852 0 0 1-7.158.006 6.269 6.269 0 0 1-1.322-4.168 6.165 6.165 0 0 1 1.328-4.135 4.452 4.452 0 0 1 3.576-1.563zm0 10.017a2.693 2.693 0 0 0 2.342-1.255 5.952 5.952 0 0 0 .01-6.138 2.9 2.9 0 0 0-4.705-.015 6.072 6.072 0 0 0 .01 6.169 2.689 2.689 0 0 0 2.343 1.24zM228.072 402.139h-1.631v-1.61a5.092 5.092 0 0 1-3.7 1.872q-3.063 0-3.064-3.712v-7.445h1.631v6.974a3.9 3.9 0 0 0 .439 2.075 1.626 1.626 0 0 0 1.485.686 4.678 4.678 0 0 0 3.21-1.861v-7.874h1.631zM241.049 401.647a7.714 7.714 0 0 1-3.231.753q-2.917 0-2.917-3.085v-6.661h-2.091v-1.412h2.09v-2.98h1.589v2.98h3.7v1.412h-3.7v6.232a2.417 2.417 0 0 0 .439 1.543 1.449 1.449 0 0 0 1.192.548 6.321 6.321 0 0 0 2.645-.6zM253 402.139h-4.454V388.8H245.7v-1.412h4.475v13.342H253zM263.927 402.139H262.3v-9.484h-3.21v-1.412h4.841zm-.795-15.015a1.066 1.066 0 0 1 .784.329 1.149 1.149 0 0 1 0 1.6 1.059 1.059 0 0 1-.789.324 1.035 1.035 0 0 1-.759-.339 1.107 1.107 0 0 1-.329-.79 1.086 1.086 0 0 1 .329-.784 1.041 1.041 0 0 1 .765-.341zM279.5 402.139h-1.631v-6.985a3.693 3.693 0 0 0-.466-2.106 1.665 1.665 0 0 0-1.458-.654 4.678 4.678 0 0 0-3.21 1.861v7.884H271.1v-10.9h1.631v1.6a5.1 5.1 0 0 1 3.7-1.861q3.063 0 3.064 3.7zM292.672 396.743H285.2a4.414 4.414 0 0 0 1.073 3.053A3.385 3.385 0 0 0 288.9 401a9.551 9.551 0 0 0 3.064-.533l.282 1.307a8.156 8.156 0 0 1-3.367.648 5.155 5.155 0 0 1-3.911-1.558 5.837 5.837 0 0 1-1.485-4.2 6.111 6.111 0 0 1 1.332-4.135 4.344 4.344 0 0 1 3.446-1.543 4.031 4.031 0 0 1 3.147 1.433 5.552 5.552 0 0 1 1.265 3.817zm-1.778-1.328a3.076 3.076 0 0 0-.795-2.15 2.367 2.367 0 0 0-1.778-.872 2.83 2.83 0 0 0-2.1.837 3.3 3.3 0 0 0-.926 2.185zM303.976 397.046h-6.211v-1.589h6.211zM316.91 392.8a8.281 8.281 0 0 0-2.583-.45 4.21 4.21 0 0 0-2.1.445 1.335 1.335 0 0 0-.774 1.186 1.117 1.117 0 0 0 .356.822 3.512 3.512 0 0 0 1.422.653l1.558.45a6.876 6.876 0 0 1 1.757.726 2.9 2.9 0 0 1 1.019 1.025 2.788 2.788 0 0 1 .341 1.4 2.846 2.846 0 0 1-1.307 2.463 5.719 5.719 0 0 1-3.325.9 7.88 7.88 0 0 1-3.315-.606l.314-1.412a6.787 6.787 0 0 0 2.938.648 4.277 4.277 0 0 0 2.212-.508 1.52 1.52 0 0 0 .851-1.343 1.416 1.416 0 0 0-.424-1.008 5.1 5.1 0 0 0-1.991-.926q-1.266-.388-1.861-.58a3.924 3.924 0 0 1-1.108-.571 2.469 2.469 0 0 1-1.046-2.07 2.564 2.564 0 0 1 1.234-2.238 5.79 5.79 0 0 1 3.273-.826 10.962 10.962 0 0 1 2.928.45zM331.005 401.647a7.714 7.714 0 0 1-3.231.753q-2.917 0-2.917-3.085v-6.661h-2.091v-1.412h2.091v-2.98h1.589v2.98h3.7v1.412h-3.7v6.232a2.417 2.417 0 0 0 .439 1.543 1.449 1.449 0 0 0 1.192.548 6.321 6.321 0 0 0 2.645-.6zM343.919 391.536l-.659 1.568a4.793 4.793 0 0 0-1.861-.471 2.709 2.709 0 0 0-1.412.414 4.51 4.51 0 0 0-1.27 1.18 4.221 4.221 0 0 0-.581.863v7.048h-1.621v-10.9h1.621v2.206q1.306-2.467 3.388-2.468a5.5 5.5 0 0 1 2.395.56zM352.378 390.982a4.446 4.446 0 0 1 3.576 1.568 6.174 6.174 0 0 1 1.328 4.13 6.247 6.247 0 0 1-1.328 4.162 4.852 4.852 0 0 1-7.158.006 6.269 6.269 0 0 1-1.322-4.168 6.165 6.165 0 0 1 1.328-4.135 4.452 4.452 0 0 1 3.576-1.563zm0 10.017a2.693 2.693 0 0 0 2.342-1.255 5.952 5.952 0 0 0 .01-6.138 2.9 2.9 0 0 0-4.705-.015 6.072 6.072 0 0 0 .01 6.169 2.689 2.689 0 0 0 2.343 1.24zM370.52 402.139h-2.144l-4.622-5.416-1.067.92v4.5h-1.631v-14.758h1.631v8.459l5.113-4.6h2.081l-4.967 4.454zM382.629 396.743h-7.476a4.414 4.414 0 0 0 1.073 3.053 3.385 3.385 0 0 0 2.629 1.2 9.551 9.551 0 0 0 3.064-.533l.282 1.307a8.156 8.156 0 0 1-3.367.648 5.155 5.155 0 0 1-3.911-1.558 5.837 5.837 0 0 1-1.485-4.2 6.111 6.111 0 0 1 1.332-4.135 4.344 4.344 0 0 1 3.446-1.543 4.031 4.031 0 0 1 3.147 1.433 5.552 5.552 0 0 1 1.265 3.817zm-1.778-1.328a3.076 3.076 0 0 0-.795-2.15 2.367 2.367 0 0 0-1.778-.872 2.83 2.83 0 0 0-2.1.837 3.3 3.3 0 0 0-.926 2.185z"/></g></svg>